<?xml version="1.0" standalone="no"?>
<!DOCTYPE svg PUBLIC "-//W3C//DTD SVG 20010904//EN"
 "http://www.w3.org/TR/2001/REC-SVG-20010904/DTD/svg10.dtd">
<svg version="1.0" xmlns="http://www.w3.org/2000/svg"
 width="225.000000pt" height="225.000000pt" viewBox="0 0 225.000000 225.000000"
 preserveAspectRatio="xMidYMid meet">

<g transform="translate(0.000000,225.000000) scale(0.100000,-0.100000)"
fill="#000000" stroke="none">
<path d="M1147 2021 c-32 -33 -57 -68 -56 -78 0 -16 1 -16 9 2 12 29 106 118
118 111 5 -3 28 -29 50 -59 l42 -53 -31 -158 c-16 -87 -29 -162 -27 -168 2 -6
16 56 32 138 15 82 29 158 32 169 3 14 -12 42 -47 88 -29 37 -55 67 -59 67 -4
0 -32 -27 -63 -59z"/>
<path d="M1021 1894 c-24 -27 -39 -54 -37 -63 6 -19 56 -250 59 -269 3 -20
-94 -56 -105 -39 -5 6 -35 64 -68 128 -32 63 -64 120 -72 126 -18 15 -129 23
-121 9 4 -6 37 -58 75 -115 38 -56 67 -105 65 -108 -3 -2 -43 50 -88 116 -90
129 -85 125 -196 136 l-63 7 0 -85 0 -86 135 -112 c75 -61 134 -114 131 -116
-2 -3 -46 29 -98 69 -51 41 -110 87 -130 102 l-38 28 0 -63 0 -64 134 -83 134
-84 -20 -46 c-11 -26 -22 -48 -23 -50 -2 -2 -20 1 -41 7 -54 15 -54 6 0 -12
l45 -16 26 56 c14 30 25 58 25 62 -1 5 -70 49 -247 158 -18 11 -23 23 -23 58
0 25 4 45 10 45 5 0 71 -48 145 -107 75 -60 141 -108 148 -108 31 0 3 32 -109
122 -208 169 -194 151 -194 233 l0 70 43 0 c106 0 101 4 231 -181 93 -132 122
-167 132 -158 10 8 -8 42 -87 161 -55 82 -98 152 -95 155 3 3 24 2 48 -1 l43
-7 70 -134 c39 -74 76 -135 82 -135 14 0 94 30 105 39 4 3 -8 74 -26 156 l-33
150 30 33 c17 17 34 29 37 25 4 -5 15 -78 24 -163 20 -179 22 -190 42 -190 8
0 14 8 14 18 0 13 -2 14 -9 3 -13 -20 -17 1 -37 184 -9 88 -20 166 -24 173 -5
10 -19 0 -49 -34z m-167 -375 c15 -22 26 -43 23 -45 -4 -4 -57 71 -57 81 0 12
9 3 34 -36z m-78 -120 c19 -22 19 -22 -3 -10 -24 12 -39 31 -25 31 5 0 17 -10
28 -21z"/>
<path d="M1103 1875 c-1 -27 3 -77 7 -110 6 -54 7 -56 7 -15 1 25 -3 74 -7
110 -7 62 -7 62 -7 15z"/>
<path d="M1331 1899 c0 -13 3 -18 6 -11 3 8 16 -2 36 -28 l30 -42 -22 -70
c-13 -38 -21 -71 -19 -74 3 -2 15 30 28 71 l23 74 -28 40 c-40 58 -55 69 -54
40z"/>
<path d="M1311 1809 c-7 -33 -10 -63 -8 -65 2 -3 10 23 16 57 7 33 10 63 8 65
-2 3 -10 -23 -16 -57z"/>
<path d="M1578 1723 c-8 -10 -18 -25 -23 -33 -4 -8 3 -2 16 13 21 25 30 28 71
25 l48 -3 -115 -141 c-102 -128 -118 -154 -94 -154 3 0 64 68 135 150 l128
150 74 0 75 0 -7 -71 c-3 -39 -9 -75 -12 -80 -2 -5 -77 -57 -165 -116 -87 -59
-158 -112 -155 -117 6 -18 21 -10 167 86 77 50 142 89 144 86 3 -2 1 -24 -3
-49 l-7 -44 -127 -65 c-70 -36 -130 -68 -134 -72 -4 -4 -2 -20 4 -35 6 -15 16
-41 22 -57 6 -16 13 -26 16 -24 3 3 -4 29 -15 59 -11 29 -20 54 -18 55 1 1 61
31 133 67 l131 66 7 47 c10 75 9 76 -16 63 -13 -7 -78 -48 -146 -92 -67 -44
-125 -77 -128 -75 -2 3 65 51 150 107 l154 102 7 67 c3 37 9 75 11 85 5 15 -3
17 -79 17 l-85 0 -58 -65 c-65 -74 -87 -81 -27 -8 62 75 62 73 -5 73 -44 0
-63 -5 -74 -17z m-24 -202 c-37 -45 -69 -79 -72 -77 -2 3 26 41 63 86 37 44
70 79 72 76 2 -2 -26 -40 -63 -85z"/>
<path d="M1286 1694 c-4 -20 -5 -38 -3 -40 3 -3 8 11 11 32 4 20 5 38 3 40 -3
3 -8 -11 -11 -32z"/>
<path d="M1123 1655 c0 -27 2 -38 4 -22 2 15 2 37 0 50 -2 12 -4 0 -4 -28z"/>
<path d="M1272 1620 c0 -14 2 -19 5 -12 2 6 2 18 0 25 -3 6 -5 1 -5 -13z"/>
<path d="M1326 1578 c-9 -33 -12 -54 -5 -56 5 -2 29 -14 54 -27 40 -22 45 -22
57 -7 11 13 11 14 -1 8 -8 -5 -32 0 -61 14 l-48 22 15 45 c8 24 13 46 10 49
-3 3 -12 -19 -21 -48z"/>
<path d="M1240 1570 c0 -16 4 -30 8 -30 5 0 7 14 4 30 -2 17 -6 30 -8 30 -2 0
-4 -13 -4 -30z"/>
<path d="M1261 1574 c0 -11 3 -14 6 -6 3 7 2 16 -1 19 -3 4 -6 -2 -5 -13z"/>
<path d="M1474 1568 c-4 -7 -14 -24 -22 -38 -14 -24 -13 -24 3 -5 20 24 37 55
31 55 -3 0 -8 -6 -12 -12z"/>
<path d="M1113 1460 c15 -39 32 -38 33 1 1 17 -2 25 -6 19 -5 -9 -9 -9 -14 -1
-15 23 -24 10 -13 -19z"/>
<path d="M1210 1465 c6 -15 6 -24 1 -20 -5 3 -12 1 -15 -4 -3 -5 1 -11 9 -15
8 -3 16 -2 19 2 8 14 1 55 -12 60 -9 3 -10 -3 -2 -23z"/>
<path d="M1050 1443 c0 -24 3 -33 9 -25 4 7 12 12 17 10 14 -5 15 10 2 32 -19
30 -28 24 -28 -17z"/>
<path d="M1247 1473 c-4 -3 -7 -17 -7 -30 0 -28 26 -31 35 -3 9 30 -10 52 -28
33z m10 -35 c-3 -8 -6 -5 -6 6 -1 11 2 17 5 13 3 -3 4 -12 1 -19z"/>
<path d="M1300 1452 c0 -10 -5 -23 -11 -29 -7 -7 -6 -12 5 -16 9 -4 16 -1 16
6 0 7 3 22 6 35 4 13 2 22 -5 22 -6 0 -11 -8 -11 -18z"/>
<path d="M983 1453 c-18 -7 -16 -38 2 -53 13 -11 14 -8 9 18 -5 24 -2 31 12
35 11 3 13 5 4 5 -8 0 -21 -2 -27 -5z"/>
<path d="M1365 1431 c-3 -5 1 -12 7 -14 8 -4 4 -8 -9 -12 -28 -9 -29 -21 -4
-35 25 -13 31 -13 31 1 0 5 -4 8 -9 4 -5 -3 -12 -1 -16 5 -3 5 6 12 20 16 14
3 25 9 25 13 0 12 -39 31 -45 22z"/>
<path d="M940 1415 c14 -16 13 -17 -7 -11 -27 9 -38 -8 -16 -25 13 -11 15 -11
9 -1 -6 10 -1 11 19 6 25 -6 26 -5 16 14 -6 12 -17 24 -24 28 -7 5 -6 0 3 -11z"/>
<path d="M1013 1415 c0 -9 4 -14 9 -13 5 2 10 8 10 13 0 5 -5 11 -10 13 -5 1
-9 -4 -9 -13z"/>
<path d="M1413 1383 c-18 -7 -16 -50 2 -57 36 -14 61 24 33 52 -13 13 -16 13
-35 5z m37 -23 c0 -12 -28 -25 -36 -17 -9 9 6 27 22 27 8 0 14 -5 14 -10z"/>
<path d="M865 1353 c16 -40 17 -53 3 -53 -8 0 -19 5 -26 12 -8 8 -15 8 -27 -2
-21 -17 -19 -23 13 -42 l27 -17 -38 -1 c-27 0 -37 -4 -34 -12 2 -7 10 -12 16
-10 6 1 10 -3 9 -9 -2 -6 3 -14 10 -16 8 -3 10 1 5 14 -3 10 -2 15 2 11 9 -9
40 30 31 39 -3 3 6 14 19 25 14 11 23 24 20 29 -4 5 0 9 8 9 8 0 20 7 27 15
11 13 10 14 -2 10 -8 -3 -27 -1 -42 5 -25 9 -27 8 -21 -7z"/>
<path d="M1128 1313 c-2 -39 -1 -48 6 -88 4 -20 3 -35 -3 -35 -5 0 -41 25 -80
55 -39 30 -73 55 -76 55 -2 0 -2 -17 0 -37 4 -50 4 -50 13 -35 6 9 16 3 38
-20 28 -32 28 -32 1 -9 -40 36 -52 15 -21 -37 14 -23 29 -40 34 -37 5 3 12 0
16 -6 4 -8 3 -9 -4 -5 -8 5 -12 0 -12 -13 0 -11 5 -23 10 -26 6 -3 10 -15 10
-26 0 -10 4 -19 10 -19 5 0 14 -9 20 -21 11 -20 10 -21 -51 -17 -55 3 -64 1
-67 -15 -2 -10 4 -27 13 -37 10 -11 15 -25 12 -33 -3 -8 8 -20 28 -31 32 -18
33 -18 75 10 33 22 51 27 90 25 60 -3 105 19 132 65 11 19 24 32 29 29 13 -9
49 18 49 36 0 9 -6 19 -14 22 -17 7 -39 -16 -28 -28 4 -4 -4 -2 -16 5 -21 10
-27 9 -48 -11 -34 -31 -43 -15 -11 19 36 37 43 79 19 114 -28 43 -152 178
-163 178 -5 0 -10 -12 -11 -27z m172 -197 c0 -23 -9 -41 -29 -60 l-29 -28 -18
48 c-10 26 -29 61 -43 78 -13 17 -18 25 -11 19 29 -27 32 -12 4 19 -16 18 -21
26 -11 19 23 -18 22 -6 -5 32 l-22 32 22 -19 c27 -24 28 -10 2 24 -11 14 -20
31 -20 38 0 6 36 -29 80 -79 65 -73 80 -96 80 -123z m-97 -36 c35 -81 70 -102
100 -57 10 14 18 19 25 12 16 -16 -31 -80 -74 -100 -27 -13 -49 -16 -84 -11
-36 5 -50 3 -60 -9 -7 -9 -21 -13 -31 -10 -9 3 -21 0 -25 -6 -5 -9 -2 -10 11
-5 16 6 16 4 4 -10 -8 -10 -15 -12 -17 -5 -2 6 -10 11 -18 11 -9 0 -12 5 -9
10 3 6 1 10 -5 10 -6 0 -9 4 -6 9 3 5 -1 12 -10 15 -13 5 -14 9 -5 20 9 11 9
15 -1 20 -7 3 32 3 87 1 55 -2 91 -2 80 1 -11 3 -31 14 -45 25 -15 11 -18 17
-7 13 30 -11 18 5 -15 21 -32 15 -32 15 -5 10 36 -7 28 8 -13 25 -16 7 -30 17
-30 22 0 5 10 2 22 -6 12 -9 29 -16 38 -16 8 1 3 7 -12 16 -31 16 -37 27 -10
17 9 -4 -3 11 -28 31 -25 21 -49 46 -54 55 -6 11 -1 9 15 -5 13 -12 38 -30 54
-40 l30 -18 -22 25 c-13 14 -23 29 -23 34 0 5 -19 29 -42 53 -36 37 -25 31 61
-34 85 -64 108 -87 124 -124z"/>
<path d="M1457 1320 c-17 -11 -24 -20 -18 -24 6 -4 11 -2 11 3 0 6 5 11 11 11
6 0 9 -9 6 -20 -3 -11 -1 -20 4 -20 13 0 21 24 17 48 -3 18 -4 18 -31 2z"/>
<path d="M347 1280 c-55 -45 -67 -38 138 -80 190 -38 198 -40 193 -45 -2 -2
-89 11 -193 30 -105 19 -195 35 -202 35 -6 0 -37 -21 -70 -47 -32 -26 -60 -48
-63 -50 -2 -2 23 -31 56 -64 l60 -60 182 16 c237 21 277 15 57 -8 -234 -25
-222 -20 -168 -70 l45 -41 119 24 c65 13 117 26 114 28 -3 3 -54 -5 -114 -18
l-109 -23 -36 29 c-19 16 -32 31 -28 35 4 3 85 14 180 24 155 16 172 20 172
37 0 16 -6 17 -40 13 -22 -3 -57 -7 -77 -10 -21 -2 -96 -7 -168 -11 l-130 -6
-50 51 c-31 32 -46 54 -39 59 6 4 31 24 55 44 l45 37 170 -29 c263 -47 244
-45 244 -27 0 16 -24 23 -250 68 -57 11 -106 22 -108 24 -8 8 54 54 72 55 11
0 58 -12 104 -26 46 -14 86 -23 88 -21 3 3 -105 39 -191 63 -5 1 -31 -15 -58
-36z"/>
<path d="M1500 1300 c0 -5 5 -10 11 -10 5 0 7 5 4 10 -3 6 -8 10 -11 10 -2 0
-4 -4 -4 -10z"/>
<path d="M1500 1267 c-14 -6 -26 -12 -28 -13 -7 -5 19 -44 30 -44 6 0 5 6 -3
17 -10 12 -10 14 -1 9 7 -4 15 -1 19 10 6 16 7 16 14 -2 7 -18 8 -17 8 3 1 28
-8 33 -39 20z"/>
<path d="M1812 1223 c-40 -9 -71 -18 -68 -20 2 -2 43 3 90 13 l87 17 30 -34
30 -34 -148 -17 c-81 -9 -160 -17 -175 -17 -18 -1 -28 -7 -28 -16 0 -19 38
-19 210 0 l125 14 -99 -5 c-54 -2 -126 -7 -160 -11 -34 -3 -59 -3 -56 -1 3 3
75 13 160 22 208 23 200 20 154 67 -42 43 -46 44 -152 22z"/>
<path d="M1698 1193 c6 -2 18 -2 25 0 6 3 1 5 -13 5 -14 0 -19 -2 -12 -5z"/>
<path d="M754 1175 c-8 -21 -3 -25 32 -28 23 -2 29 2 29 18 0 26 -52 35 -61
10z"/>
<path d="M1550 1180 c0 -6 -11 -8 -26 -4 -20 5 -25 3 -22 -6 2 -8 10 -16 18
-18 7 -3 10 0 7 5 -3 5 3 9 15 9 12 -1 23 5 25 12 3 6 0 12 -6 12 -6 0 -11 -5
-11 -10z"/>
<path d="M1658 1183 c7 -3 16 -2 19 1 4 3 -2 6 -13 5 -11 0 -14 -3 -6 -6z"/>
<path d="M1522 1138 c-7 -7 -12 -15 -12 -19 0 -14 32 -19 51 -8 16 8 18 13 8
25 -14 17 -31 18 -47 2z m31 -15 c-7 -2 -19 -2 -25 0 -7 3 -2 5 12 5 14 0 19
-2 13 -5z"/>
<path d="M1997 1133 c23 -3 43 -17 71 -51 22 -26 41 -51 42 -55 0 -5 -22 -26
-50 -49 l-51 -40 -180 32 c-99 17 -187 29 -195 26 -21 -8 -8 -26 19 -25 21 0
21 1 2 9 -34 15 -6 11 173 -21 193 -35 184 -36 262 31 l45 39 -55 55 c-44 45
-60 56 -85 54 l-30 -1 32 -4z"/>
<path d="M772 1003 c-17 -3 -22 -9 -17 -21 4 -9 10 -25 12 -34 3 -10 10 -18
15 -18 5 0 6 -5 3 -10 -4 -6 6 -30 21 -55 25 -38 31 -42 49 -33 18 10 19 9 7
-5 -8 -9 -10 -21 -6 -28 4 -8 11 -4 20 12 21 39 18 50 -12 39 -31 -12 -37 -12
-30 -1 4 5 0 12 -6 15 -8 4 -9 8 -3 11 29 15 37 24 31 34 -5 8 -12 7 -22 -4
-25 -24 -38 -17 -20 11 13 18 14 25 4 23 -36 -4 -42 2 -19 20 16 12 22 24 18
35 -4 9 -10 15 -14 15 -4 -1 -18 -4 -31 -6z"/>
<path d="M1509 978 c11 -15 11 -18 -1 -18 -8 0 -20 -12 -27 -27 -7 -15 -25
-43 -42 -64 -33 -42 -35 -52 -13 -69 12 -11 18 -10 31 3 15 15 15 16 -4 11
-28 -8 -41 16 -18 32 16 12 21 11 36 -2 12 -11 19 -12 24 -4 7 11 -5 24 -29
33 -5 2 -6 9 -2 16 6 9 13 9 31 -3 19 -13 24 -13 28 -2 3 8 -3 16 -14 19 -10
3 -19 12 -19 20 0 18 34 29 48 15 6 -6 12 -4 15 6 4 9 1 16 -5 16 -6 0 -21 8
-32 18 -20 16 -20 16 -7 0z"/>
<path d="M650 960 c-12 -9 -10 -10 10 -8 21 3 27 -4 42 -46 10 -27 17 -50 16
-51 -2 -2 -62 -32 -134 -68 l-132 -66 -7 -56 c-3 -31 -5 -58 -3 -61 3 -2 68
37 147 87 78 50 144 89 146 87 2 -2 -63 -48 -144 -103 -164 -110 -162 -107
-160 -220 2 -59 5 -46 14 48 l7 68 159 106 c138 92 184 133 150 133 -5 0 -49
-26 -98 -58 -108 -72 -202 -132 -206 -132 -2 0 0 21 3 48 l5 47 136 68 137 67
-24 58 c-23 58 -38 70 -64 52z m110 -170 c0 -5 -5 -10 -11 -10 -5 0 -7 5 -4
10 3 6 8 10 11 10 2 0 4 -4 4 -10z"/>
<path d="M1680 966 c0 -2 63 -16 140 -31 77 -15 140 -30 140 -34 0 -8 -64 -51
-76 -51 -5 0 -67 18 -138 40 -70 22 -129 40 -131 40 -6 0 -58 -110 -54 -114 2
-1 57 -36 122 -76 l117 -74 0 -43 c0 -24 -2 -43 -5 -43 -3 0 -58 41 -123 92
-64 50 -123 96 -130 101 -8 7 -16 7 -23 0 -7 -7 37 -50 135 -132 l146 -122 0
-63 c0 -34 -2 -65 -4 -67 -2 -2 -35 -3 -73 -1 l-69 3 -99 146 c-55 80 -103
150 -107 156 -5 9 -10 9 -19 0 -10 -10 7 -42 79 -150 51 -76 88 -139 84 -141
-5 -1 -26 1 -48 6 -38 7 -41 11 -100 125 -34 65 -63 120 -65 122 -6 6 -113
-32 -116 -42 -1 -4 10 -66 26 -138 l29 -129 -25 -33 c-14 -18 -29 -33 -33 -33
-6 0 -17 75 -36 268 -6 49 -10 62 -23 60 -17 -4 -17 -22 3 -238 l12 -134 -51
-48 -50 -48 -48 51 c-29 31 -46 57 -43 68 17 60 67 335 62 347 -13 34 -25 4
-60 -153 -20 -92 -38 -168 -39 -170 -2 -1 -16 14 -32 34 l-28 36 45 138 46
137 -58 25 -58 25 -80 -124 -81 -124 -46 0 c-25 0 -45 3 -45 6 0 3 47 64 105
135 58 71 103 134 100 140 -10 14 -20 4 -135 -134 -89 -106 -93 -112 -30 -47
83 87 82 76 -2 -26 -32 -39 -58 -74 -58 -77 0 -4 26 -7 58 -7 l57 0 80 120
c43 66 83 120 87 120 15 0 88 -40 88 -48 0 -4 -18 -62 -40 -127 -22 -65 -40
-124 -40 -130 0 -6 17 -31 37 -54 l37 -43 16 73 c10 41 27 118 40 172 36 160
32 105 -5 -87 l-35 -177 47 -54 c26 -30 51 -55 56 -55 5 0 33 24 62 53 l54 52
-15 160 c-8 88 -13 171 -12 185 2 14 11 -51 21 -145 10 -93 21 -172 23 -175 3
-2 23 14 46 37 l41 41 -27 123 c-15 68 -28 130 -29 137 -1 8 19 22 45 32 l47
18 24 -42 c14 -22 43 -78 66 -123 l40 -81 56 -7 c31 -4 58 -6 60 -3 2 2 -39
68 -91 147 -53 79 -93 145 -91 148 3 2 53 -66 111 -151 l107 -156 48 0 c27 0
63 -3 80 -6 l31 -6 0 79 0 79 -101 83 c-55 46 -98 85 -95 88 2 2 44 -27 94
-66 49 -39 92 -71 96 -71 3 0 6 26 6 58 l-1 57 -119 73 -119 73 22 47 c12 26
22 48 22 49 1 2 64 -17 140 -41 l140 -43 46 36 c25 20 45 37 44 39 -3 4 -281
62 -295 62 -6 0 -10 -2 -10 -4z m-75 -264 c-5 -6 -73 50 -74 61 -1 4 17 -7 39
-24 22 -18 38 -34 35 -37z m-761 -4 c-17 -29 -77 -98 -81 -94 -3 3 14 28 37
55 42 49 59 65 44 39z"/>
<path d="M887 813 c-13 -12 -7 -41 9 -47 23 -9 34 -7 34 5 0 6 -6 9 -14 6 -20
-8 -28 4 -15 20 14 16 19 16 43 -2 19 -14 19 -16 2 -34 -17 -19 -17 -20 14
-36 18 -9 34 -14 37 -11 3 3 12 -2 20 -10 20 -20 24 -14 17 25 l-7 32 -25 -23
c-24 -23 -25 -23 -13 -1 15 30 16 29 -26 58 -37 25 -63 31 -76 18z"/>
<path d="M1376 796 c4 -11 0 -13 -18 -9 l-23 5 25 -21 c27 -23 63 -30 42 -9
-7 7 -12 20 -12 30 0 10 -4 18 -10 18 -5 0 -7 -6 -4 -14z"/>
<path d="M1317 743 c-4 -27 -4 -27 -12 -5 -8 25 -28 25 -33 -1 -2 -11 3 -17
15 -18 16 0 16 -1 -2 -8 -15 -6 -24 -3 -34 12 -14 20 -15 20 -22 1 -4 -10 -8
-26 -8 -34 -1 -13 0 -13 10 0 7 10 12 11 15 4 7 -18 97 12 94 31 -1 4 1 9 4
13 3 3 6 0 6 -6 0 -6 7 -9 15 -6 12 5 10 10 -9 25 -31 25 -34 24 -39 -8z"/>
<path d="M1054 725 c-9 -23 3 -45 26 -45 11 0 20 7 20 15 0 18 -16 20 -23 3
-3 -7 -6 -2 -6 11 -1 19 3 22 19 18 11 -3 20 -1 20 4 0 15 -50 10 -56 -6z"/>
<path d="M1177 733 c-14 -14 -7 -63 9 -63 8 0 12 5 9 11 -4 6 1 17 11 24 17
13 17 16 4 25 -18 12 -24 12 -33 3z"/>
<path d="M1126 675 c4 -8 8 -15 10 -15 2 0 4 7 4 15 0 8 -4 15 -10 15 -5 0 -7
-7 -4 -15z"/>
<path d="M605 441 c-6 -5 -21 -11 -35 -14 l-25 -4 26 -2 c15 0 32 6 39 14 14
16 10 21 -5 6z"/>
</g>
</svg>
